<svg width="28" height="28" viewBox="0 0 28 28" fill="none" xmlns="http://www.w3.org/2000/svg">
<path fill-rule="evenodd" clip-rule="evenodd" d="M14 3.5C11.1482 3.5 10.7912 3.5119 9.6712 3.563C8.5533 3.6141 7.7896 3.7919 7.1218 4.0516C6.4218 4.3148 5.7869 4.7278 5.2619 5.2626C4.72796 5.78699 4.3147 6.42145 4.0509 7.1218C3.7926 7.7896 3.6141 8.554 3.563 9.6719C3.5126 10.7912 3.5 11.1475 3.5 14C3.5 16.8525 3.5119 17.2088 3.563 18.3288C3.6141 19.4467 3.7919 20.2104 4.0516 20.8782C4.3148 21.5782 4.7278 22.2131 5.2626 22.7381C5.78701 23.272 6.42146 23.6853 7.1218 23.9491C7.7896 24.2081 8.5533 24.3859 9.6712 24.437C10.7912 24.4881 11.1482 24.5 14 24.5C16.8518 24.5 17.2088 24.4881 18.3288 24.437C19.4467 24.3859 20.2104 24.2081 20.8782 23.9484C21.5782 23.6852 22.2131 23.2722 22.7381 22.7374C23.272 22.213 23.6853 21.5786 23.9491 20.8782C24.2081 20.2104 24.3859 19.4467 24.437 18.3288C24.4881 17.2088 24.5 16.8518 24.5 14C24.5 11.1482 24.4881 10.7912 24.437 9.6712C24.3859 8.5533 24.2081 7.7896 23.9484 7.1218C23.6848 6.42114 23.2715 5.78642 22.7374 5.2619C22.213 4.72796 21.5786 4.3147 20.8782 4.0509C20.2104 3.7926 19.446 3.6141 18.3281 3.563C17.2088 3.5126 16.8525 3.5 14 3.5ZM14 5.3921C16.8035 5.3921 17.136 5.4026 18.2434 5.453C19.2668 5.4999 19.8226 5.67 20.1929 5.8149C20.6829 6.0046 21.0329 6.2328 21.4004 6.5996C21.7679 6.9671 21.9954 7.3171 22.1851 7.8071C22.3293 8.1774 22.5001 8.7332 22.547 9.7566C22.5974 10.864 22.6079 11.1965 22.6079 14C22.6079 16.8035 22.5974 17.136 22.547 18.2434C22.5001 19.2668 22.33 19.8226 22.1851 20.1929C22.0171 20.649 21.7489 21.0616 21.4004 21.4004C21.0617 21.749 20.649 22.0171 20.1929 22.1851C19.8226 22.3293 19.2668 22.5001 18.2434 22.547C17.136 22.5974 16.8042 22.6079 14 22.6079C11.1958 22.6079 10.864 22.5974 9.7566 22.547C8.7332 22.5001 8.1774 22.33 7.8071 22.1851C7.35102 22.0171 6.9384 21.7489 6.5996 21.4004C6.25112 21.0616 5.98299 20.649 5.8149 20.1929C5.6707 19.8226 5.4999 19.2668 5.453 18.2434C5.4026 17.136 5.3921 16.8035 5.3921 14C5.3921 11.1965 5.4026 10.864 5.453 9.7566C5.4999 8.7332 5.67 8.1774 5.8149 7.8071C6.0046 7.3171 6.2328 6.9671 6.5996 6.5996C6.93836 6.25103 7.35099 5.98288 7.8071 5.8149C8.1774 5.6707 8.7332 5.4999 9.7566 5.453C10.864 5.4026 11.1965 5.3921 14 5.3921Z" fill="#364954"/>
<path fill-rule="evenodd" clip-rule="evenodd" d="M13.9986 17.5008C13.5385 17.5008 13.0829 17.4102 12.6578 17.2341C12.2328 17.0581 11.8465 16.8 11.5212 16.4747C11.1959 16.1493 10.9378 15.7631 10.7617 15.338C10.5857 14.913 10.4951 14.4574 10.4951 13.9973C10.4951 13.5372 10.5857 13.0816 10.7617 12.6566C10.9378 12.2315 11.1959 11.8453 11.5212 11.52C11.8465 11.1946 12.2328 10.9366 12.6578 10.7605C13.0829 10.5844 13.5385 10.4938 13.9986 10.4938C14.9277 10.4938 15.8189 10.8629 16.4759 11.52C17.1329 12.177 17.5021 13.0681 17.5021 13.9973C17.5021 14.9265 17.1329 15.8176 16.4759 16.4747C15.8189 17.1317 14.9277 17.5008 13.9986 17.5008ZM13.9986 8.60031C12.5672 8.60031 11.1944 9.16892 10.1823 10.1811C9.17017 11.1932 8.60156 12.5659 8.60156 13.9973C8.60156 15.4287 9.17017 16.8014 10.1823 17.8136C11.1944 18.8257 12.5672 19.3943 13.9986 19.3943C15.4299 19.3943 16.8027 18.8257 17.8148 17.8136C18.8269 16.8014 19.3956 15.4287 19.3956 13.9973C19.3956 12.5659 18.8269 11.1932 17.8148 10.1811C16.8027 9.16892 15.4299 8.60031 13.9986 8.60031ZM20.9657 8.50231C20.9657 8.84066 20.8313 9.16515 20.592 9.4044C20.3528 9.64365 20.0283 9.77806 19.6899 9.77806C19.3516 9.77806 19.0271 9.64365 18.7878 9.4044C18.5486 9.16515 18.4142 8.84066 18.4142 8.50231C18.4142 8.16396 18.5486 7.83947 18.7878 7.60022C19.0271 7.36097 19.3516 7.22656 19.6899 7.22656C20.0283 7.22656 20.3528 7.36097 20.592 7.60022C20.8313 7.83947 20.9657 8.16396 20.9657 8.50231Z" fill="#364954"/>
</svg>
