<svg width="28" height="28" viewBox="0 0 28 28" fill="none" xmlns="http://www.w3.org/2000/svg">
<path d="M24.5 5.04412V22.9559C24.5 23.3654 24.3373 23.7582 24.0477 24.0477C23.7582 24.3373 23.3654 24.5 22.9559 24.5H5.04412C4.63459 24.5 4.24184 24.3373 3.95226 24.0477C3.66268 23.7582 3.5 23.3654 3.5 22.9559V5.04412C3.5 4.63459 3.66268 4.24184 3.95226 3.95226C4.24184 3.66268 4.63459 3.5 5.04412 3.5H22.9559C23.3654 3.5 23.7582 3.66268 24.0477 3.95226C24.3373 4.24184 24.5 4.63459 24.5 5.04412ZM9.67647 11.5294H6.58824V21.4118H9.67647V11.5294ZM9.95441 8.13235C9.95604 7.89875 9.91164 7.66712 9.82375 7.45068C9.73585 7.23424 9.60619 7.03723 9.44215 6.8709C9.27812 6.70458 9.08293 6.57219 8.86773 6.4813C8.65253 6.39041 8.42154 6.34279 8.18794 6.34118H8.13235C7.6573 6.34118 7.20171 6.52989 6.8658 6.8658C6.52989 7.20171 6.34118 7.6573 6.34118 8.13235C6.34118 8.6074 6.52989 9.06299 6.8658 9.39891C7.20171 9.73482 7.6573 9.92353 8.13235 9.92353C8.36597 9.92928 8.59843 9.88894 8.81645 9.80481C9.03447 9.72069 9.23378 9.59443 9.40298 9.43325C9.57219 9.27208 9.70798 9.07914 9.8026 8.86546C9.89722 8.65179 9.9488 8.42156 9.95441 8.18794V8.13235ZM21.4118 15.4082C21.4118 12.4374 19.5218 11.2824 17.6441 11.2824C17.0293 11.2516 16.4172 11.3825 15.8689 11.6621C15.3205 11.9417 14.855 12.3602 14.5188 12.8759H14.4324V11.5294H11.5294V21.4118H14.6176V16.1556C14.573 15.6173 14.7426 15.0831 15.0895 14.6691C15.4365 14.255 15.9328 13.9946 16.4706 13.9444H16.5879C17.57 13.9444 18.2988 14.5621 18.2988 16.1185V21.4118H21.3871L21.4118 15.4082Z" fill="#364954"/>
</svg>
