<svg width="123" height="35" viewBox="0 0 123 35" fill="none" xmlns="http://www.w3.org/2000/svg">
<path fill-rule="evenodd" clip-rule="evenodd" d="M2.9548 9.96199C4.88911 9.45756 6.87393 10.5622 7.38801 12.4295C7.57563 13.1109 7.86759 13.8012 8.46523 14.2048L8.74273 14.3921C9.7324 15.0602 11.052 14.9396 12.2042 14.5792C12.2915 14.5519 12.3799 14.5265 12.4694 14.5032C13.3374 14.2768 14.1738 13.8214 14.568 13.04L14.9461 12.2907C15.5111 11.1705 15.2935 9.85756 14.9627 8.6564C14.1777 5.80497 15.936 2.86895 18.8899 2.09862C21.8439 1.32829 24.875 3.01535 25.66 5.86678C26.4451 8.7182 24.6868 11.6542 21.7328 12.4246C20.7552 12.6795 19.7975 13.1758 19.3534 14.056L19.1208 14.5172C18.5571 15.6345 18.7906 16.9451 19.1433 18.137C19.1527 18.1689 19.1619 18.2009 19.1708 18.2331C19.9478 21.0556 18.2074 23.9618 15.2834 24.7243C12.3595 25.4868 9.35916 23.8169 8.58209 20.9944C8.4785 20.6181 8.41961 20.2404 8.40239 19.8665C8.35532 18.8485 8.029 17.7915 7.16614 17.209L6.7151 16.9045C6.17169 16.5376 5.4582 16.5563 4.8164 16.7236C2.88209 17.2281 0.897267 16.1234 0.383191 14.2562C-0.130884 12.389 1.02049 10.4664 2.9548 9.96199Z" fill="#55BBEB"/>
<path d="M37.0614 15.8219C37.1463 16.8957 37.5919 17.7631 38.3982 18.4239C39.2257 19.064 40.3184 19.3841 41.6764 19.3841C42.8009 19.3841 43.7133 19.157 44.4135 18.7026C45.1349 18.2277 45.4956 17.5772 45.4956 16.7512C45.4956 16.173 45.2941 15.7187 44.8909 15.3883C44.509 15.0372 43.9573 14.7688 43.2359 14.5829C42.5357 14.3764 41.443 14.1286 39.9577 13.8395C38.4936 13.571 37.263 13.2303 36.2657 12.8173C35.2685 12.3836 34.4516 11.7538 33.815 10.9278C33.1997 10.0811 32.892 8.96601 32.892 7.58244C32.892 6.32276 33.2421 5.19732 33.9423 4.2061C34.6638 3.21489 35.6504 2.4405 36.9023 1.88294C38.1754 1.30473 39.6076 1.01562 41.199 1.01562C42.8328 1.01562 44.2968 1.31505 45.5911 1.91391C46.9067 2.49212 47.9357 3.29749 48.6784 4.33001C49.4422 5.36252 49.8348 6.52927 49.856 7.83024H45.1774C45.0713 6.90097 44.6681 6.15756 43.9679 5.6C43.2677 5.02179 42.3447 4.73269 41.199 4.73269C40.1381 4.73269 39.2893 4.94952 38.6528 5.38318C38.0162 5.81683 37.698 6.43634 37.698 7.24171C37.698 7.81992 37.8889 8.27422 38.2709 8.60463C38.6528 8.91438 39.1938 9.17251 39.894 9.37902C40.5942 9.56487 41.6764 9.79202 43.1404 10.0605C44.6257 10.3289 45.8776 10.6697 46.896 11.0827C47.9145 11.475 48.7314 12.0842 49.3467 12.9102C49.9833 13.7156 50.3016 14.7997 50.3016 16.1627C50.3016 17.4843 49.9302 18.6717 49.1876 19.7248C48.445 20.7574 47.4053 21.573 46.0685 22.1719C44.753 22.7708 43.2677 23.0702 41.6127 23.0702C39.8304 23.0702 38.239 22.7604 36.8386 22.1409C35.4594 21.5008 34.3773 20.6231 33.5922 19.508C32.8072 18.3929 32.404 17.1435 32.3828 15.76L37.0614 15.8219Z" fill="#30404A"/>
<path d="M55.8122 6.96293L59.7906 18.3929L63.6735 6.96293H68.4794L61.2228 25.1456C60.8409 26.1161 60.4802 26.8699 60.1407 27.4068C59.8012 27.9643 59.3662 28.3773 58.8358 28.6458C58.3265 28.9349 57.6581 29.0794 56.8306 29.0794H52.4703V25.3934H54.9528C55.5257 25.3934 55.9395 25.3004 56.1941 25.1146C56.4487 24.9287 56.6927 24.5673 56.9261 24.0304L57.3399 22.9773L51.0381 6.96293H55.8122Z" fill="#30404A"/>
<path d="M79.3929 6.77707C81.3026 6.77707 82.8727 7.35528 84.1034 8.5117C85.334 9.66812 85.9493 11.5783 85.9493 14.2422V22.8843H81.4617V14.49C81.4617 11.7435 80.3584 10.3702 78.1517 10.3702C76.9847 10.3702 76.0829 10.7523 75.4463 11.5163C74.8098 12.2804 74.4915 13.3542 74.4915 14.7378V22.8843H70.0039V6.96293H73.9186L74.3324 8.94536C74.9053 8.2639 75.5949 7.73731 76.4012 7.36561C77.2075 6.97325 78.2047 6.77707 79.3929 6.77707Z" fill="#30404A"/>
<path d="M104.882 19.1983V22.8843H102.59C100.532 22.8843 99.524 22.017 99.5664 20.2824C98.9723 21.191 98.2403 21.8828 97.3704 22.3578C96.5004 22.8327 95.4501 23.0702 94.2195 23.0702C92.3947 23.0702 90.92 22.6675 89.7955 21.8622C88.6921 21.0361 88.1405 19.8797 88.1405 18.3929C88.1405 16.6996 88.777 15.3986 90.0501 14.49C91.3444 13.5607 93.2116 13.0961 95.6517 13.0961H98.8981V12.3217C98.8981 11.5989 98.6222 11.031 98.0706 10.618C97.5189 10.1844 96.7763 9.96755 95.8427 9.96755C95.0151 9.96755 94.3362 10.1431 93.8057 10.4941C93.2753 10.8452 92.957 11.3201 92.8509 11.919H88.5224C88.6709 10.2876 89.4135 9.02796 90.7503 8.14C92.087 7.23138 93.8588 6.77707 96.0654 6.77707C98.3782 6.77707 100.161 7.27268 101.412 8.2639C102.686 9.25511 103.322 10.6903 103.322 12.5695V18.1761C103.322 18.5684 103.407 18.8369 103.577 18.9814C103.746 19.126 104.012 19.1983 104.372 19.1983H104.882ZM98.8981 16.0078H95.6199C94.6863 16.0078 93.9542 16.1936 93.4238 16.5653C92.9145 16.9164 92.6599 17.4223 92.6599 18.0831C92.6599 18.6407 92.8721 19.0847 93.2965 19.4151C93.7421 19.7455 94.3362 19.9107 95.0788 19.9107C96.2458 19.9107 97.1688 19.5906 97.8478 18.9505C98.5268 18.2896 98.8769 17.412 98.8981 16.3175V16.0078Z" fill="#30404A"/>
<path d="M122.977 6.96293V29.0794H118.489V20.84C117.259 22.3268 115.614 23.0702 113.556 23.0702C112.092 23.0702 110.787 22.7501 109.641 22.11C108.495 21.4491 107.594 20.5096 106.936 19.2912C106.299 18.0522 105.981 16.6066 105.981 14.9546C105.981 13.3439 106.299 11.919 106.936 10.68C107.594 9.44097 108.495 8.48073 109.641 7.79926C110.787 7.1178 112.081 6.77707 113.524 6.77707C114.649 6.77707 115.635 6.98358 116.484 7.39658C117.354 7.80959 118.065 8.37747 118.617 9.10024L119.062 6.96293H122.977ZM114.574 19.508C115.784 19.508 116.749 19.0847 117.471 18.238C118.192 17.3914 118.553 16.2866 118.553 14.9236C118.553 13.5401 118.192 12.4353 117.471 11.6093C116.749 10.7626 115.784 10.3393 114.574 10.3393C113.365 10.3393 112.389 10.7626 111.646 11.6093C110.925 12.4353 110.564 13.5297 110.564 14.8927C110.564 16.2762 110.925 17.3914 111.646 18.238C112.389 19.0847 113.365 19.508 114.574 19.508Z" fill="#30404A"/>
<path d="M80.9099 28.0702C81.3336 28.0702 81.7096 28.1602 82.0378 28.3403C82.372 28.5203 82.6315 28.7817 82.8165 29.1244C83.0075 29.467 83.103 29.8736 83.103 30.344C83.103 30.7912 83.0075 31.1862 82.8165 31.5288C82.6315 31.8715 82.372 32.1387 82.0378 32.3303C81.7036 32.522 81.3276 32.6178 80.9099 32.6178C80.5399 32.6178 80.2236 32.5539 79.961 32.4261C79.6985 32.2926 79.4926 32.1125 79.3434 31.886L79.2449 32.5655H78.6094V26.4672H79.3434V28.8369C79.7253 28.3258 80.2475 28.0702 80.9099 28.0702ZM80.8383 31.9818C81.2918 31.9818 81.6558 31.8308 81.9304 31.5288C82.2108 31.221 82.3511 30.8261 82.3511 30.344C82.3511 29.862 82.2108 29.4699 81.9304 29.1679C81.6558 28.8601 81.2918 28.7062 80.8383 28.7062C80.5459 28.7062 80.2833 28.7759 80.0506 28.9153C79.8238 29.0488 79.6477 29.2405 79.5224 29.4902C79.3971 29.7342 79.3344 30.013 79.3344 30.3266C79.3344 30.646 79.3971 30.9335 79.5224 31.1891C79.6477 31.4388 79.8238 31.6334 80.0506 31.7728C80.2833 31.9121 80.5459 31.9818 80.8383 31.9818Z" fill="#425A69"/>
<path d="M84.0892 28.1225L85.4946 31.7466L86.8552 28.1225H87.6339L85.5304 33.3148C85.4229 33.5819 85.3275 33.7823 85.2439 33.9159C85.1604 34.0495 85.0559 34.1482 84.9306 34.2121C84.8053 34.276 84.6382 34.3079 84.4293 34.3079H83.5521V33.6545H84.2056C84.3488 33.6545 84.4562 33.64 84.5278 33.611C84.5994 33.5819 84.6561 33.5326 84.6979 33.4629C84.7456 33.399 84.8023 33.2886 84.868 33.1318L85.1007 32.6004L83.3104 28.1225H84.0892Z" fill="#425A69"/>
<path d="M92.8516 26.4672C93.514 26.4672 94.0242 26.6066 94.3823 26.8854C94.7463 27.1642 94.9283 27.5504 94.9283 28.0441C94.9283 28.4042 94.8328 28.7033 94.6419 28.9414C94.4509 29.1737 94.1734 29.3363 93.8094 29.4293C94.7284 29.5977 95.1879 30.0827 95.1879 30.8841C95.1879 31.4069 94.991 31.8192 94.5971 32.1212C94.2092 32.4174 93.6483 32.5655 92.9142 32.5655H90.6316V26.4672H92.8516ZM91.4104 29.1156H92.8874C93.2872 29.1156 93.5975 29.0285 93.8183 28.8543C94.0391 28.68 94.1495 28.439 94.1495 28.1312C94.1495 27.8234 94.0391 27.5853 93.8183 27.4168C93.6035 27.2426 93.2932 27.1555 92.8874 27.1555H91.4104V29.1156ZM91.4104 31.8773H92.9142C93.3916 31.8773 93.7557 31.7873 94.0063 31.6072C94.2629 31.4272 94.3912 31.1774 94.3912 30.858C94.3912 30.5153 94.2629 30.254 94.0063 30.0739C93.7497 29.8881 93.3857 29.7952 92.9142 29.7952H91.4104V31.8773Z" fill="#425A69"/>
<path d="M95.9402 30.344C95.9402 29.891 96.0297 29.4932 96.2088 29.1505C96.3938 28.8078 96.6504 28.5436 96.9786 28.3577C97.3068 28.166 97.6828 28.0702 98.1065 28.0702C98.5242 28.0702 98.8942 28.1544 99.2165 28.3229C99.5387 28.4913 99.7923 28.7352 99.9773 29.0547C100.162 29.3741 100.261 29.7487 100.273 30.1785C100.273 30.2424 100.267 30.344 100.255 30.4834H96.7101V30.5444C96.722 30.98 96.8592 31.3285 97.1218 31.5898C97.3844 31.8512 97.7275 31.9818 98.1512 31.9818C98.4795 31.9818 98.7569 31.9034 98.9837 31.7466C99.2165 31.584 99.3716 31.3604 99.4492 31.0758H100.192C100.103 31.5288 99.8789 31.9005 99.5208 32.1909C99.1627 32.4755 98.7241 32.6178 98.2049 32.6178C97.7514 32.6178 97.3546 32.5249 97.0144 32.339C96.6742 32.1474 96.4087 31.8802 96.2177 31.5375C96.0327 31.1891 95.9402 30.7912 95.9402 30.344ZM99.5119 29.891C99.476 29.5135 99.3298 29.2202 99.0732 29.0111C98.8226 28.802 98.5033 28.6975 98.1154 28.6975C97.7693 28.6975 97.465 28.8078 97.2024 29.0285C96.9398 29.2492 96.7906 29.5367 96.7548 29.891H99.5119Z" fill="#425A69"/>
<path d="M101.258 28.1225L102.663 31.7466L104.024 28.1225H104.802L102.699 33.3148C102.591 33.5819 102.496 33.7823 102.412 33.9159C102.329 34.0495 102.224 34.1482 102.099 34.2121C101.974 34.276 101.807 34.3079 101.598 34.3079H100.721V33.6545H101.374C101.517 33.6545 101.625 33.64 101.696 33.611C101.768 33.5819 101.825 33.5326 101.866 33.4629C101.914 33.399 101.971 33.2886 102.037 33.1318L102.269 32.6004L100.479 28.1225H101.258Z" fill="#425A69"/>
<path d="M105.717 26.4062C105.854 26.4062 105.968 26.4498 106.057 26.5369C106.147 26.624 106.191 26.7344 106.191 26.868C106.191 27.0016 106.147 27.1119 106.057 27.199C105.968 27.2861 105.854 27.3297 105.717 27.3297C105.58 27.3297 105.466 27.2861 105.377 27.199C105.287 27.1119 105.243 27.0016 105.243 26.868C105.243 26.7344 105.287 26.624 105.377 26.5369C105.466 26.4498 105.58 26.4062 105.717 26.4062ZM105.35 28.1225H106.084V32.5655H105.35V28.1225Z" fill="#425A69"/>
<path d="M112.183 28.0702C112.696 28.0702 113.111 28.227 113.427 28.5407C113.749 28.8543 113.911 29.3421 113.911 30.0042V32.5655H113.177V30.0478C113.177 29.618 113.081 29.2899 112.89 29.0634C112.705 28.8369 112.44 28.7236 112.093 28.7236C111.711 28.7236 111.41 28.8543 111.189 29.1156C110.974 29.377 110.867 29.7342 110.867 30.1872V32.5655H110.133V30.0478C110.133 29.618 110.038 29.2899 109.847 29.0634C109.656 28.8369 109.384 28.7236 109.032 28.7236C108.662 28.7236 108.367 28.863 108.146 29.1418C107.931 29.4147 107.824 29.7748 107.824 30.222V32.5655H107.09V28.1225H107.725L107.824 28.7323C108.152 28.2909 108.596 28.0702 109.157 28.0702C109.486 28.0702 109.775 28.1428 110.026 28.288C110.282 28.4274 110.473 28.6365 110.599 28.9153C110.927 28.3519 111.455 28.0702 112.183 28.0702Z" fill="#425A69"/>
</svg>
